<svg width="103" height="116" viewBox="0 0 103 116" fill="none" xmlns="http://www.w3.org/2000/svg">
<mask id="mask0_509_741" style="mask-type:luminance" maskUnits="userSpaceOnUse" x="0" y="0" width="103" height="116">
<path d="M103 0H0V115.875H103V0Z" fill="white"/>
</mask>
<g mask="url(#mask0_509_741)">
<path d="M51.818 0.404053C70.9136 0.404053 86.5026 15.4746 86.5026 33.9529C86.5026 52.4311 70.9136 67.4665 51.818 67.4665C32.7225 67.4665 17.1334 52.3958 17.1334 33.9353C17.1334 15.4746 32.7225 0.404053 51.818 0.404053Z" stroke="#1D1D1B" stroke-width="0.45" stroke-miterlimit="2.61"/>
<path d="M75.2562 44.0174L72.9123 48.1101L73.839 48.6195L75.5833 45.5808L80.9793 48.479L81.579 47.425L75.2562 44.0174ZM77.2184 37.2901L77.0185 38.5197L78.672 39.5559L77.8724 42.1731L75.9103 42.2961L75.4742 43.4905L83.2505 42.9812L83.6139 41.7516L77.2184 37.2901ZM82.2694 42.0151V42.0501L78.8901 42.1205L79.5077 40.1181L82.2694 42.0151ZM77.3093 31.2479L77.3637 32.372L82.5964 32.1086V32.1436L77.3637 35.481L77.2911 36.7456L84.4134 37.3253L84.5406 36.043L79.1807 35.6918V35.6215L84.5951 32.2491L84.5042 30.8965L77.2911 31.2479H77.3093ZM82.6146 25.873C83.0144 27.2431 81.8515 28.2969 80.5434 28.6131C79.2353 28.9469 77.818 28.7361 77.4365 27.3485C77.0367 25.9257 78.1814 24.9422 79.4714 24.5556C80.7614 24.1692 82.1967 24.4679 82.6146 25.873ZM83.5957 25.5568C83.0144 23.5896 81.0521 22.7816 79.108 23.4139C77.2002 24.0462 75.9103 25.6622 76.4554 27.6295C77.0005 29.5616 78.9263 30.2291 80.8704 29.7198C82.8327 29.1928 84.1408 27.5065 83.5775 25.5568M74.6748 22.729L75.2017 23.818L81.7243 20.832L81.1974 19.7429L74.6748 22.729ZM76.5825 14.7721L77.7453 16.4231L72.7125 19.6726L73.3847 20.6738L78.4175 17.4243L79.6894 19.216L80.6161 18.7066L77.4365 14.1397L76.5825 14.7721ZM67.6798 14.4559L68.6791 15.2639L70.4777 14.3505L72.4582 16.3001L71.5861 18.1973L72.4036 19.1808L75.6015 12.0495L74.6384 11.1537L67.6798 14.4559ZM74.275 12.4535L72.8398 15.422L71.3316 13.8938L74.2568 12.436L74.275 12.4535ZM62.4471 11.3645L63.5373 11.8563L65.9718 7.42999H66.0081L66.3897 13.525L67.4072 14.2451L71.259 8.39605L70.278 7.64076L67.4072 11.9793L67.0438 5.77889L65.8446 5.19926L62.4471 11.3645ZM56.2878 9.50263L57.4142 9.73098L58.2136 6.99086L60.0306 7.48269C61.1388 7.78129 61.157 8.39605 60.7936 9.59045C60.7028 9.90663 60.5939 10.3106 60.6846 10.6444L61.9202 11.1362C61.7385 10.8024 61.8656 9.88906 62.1019 9.13378C62.4107 8.09745 61.9747 7.64076 61.5749 7.46511C61.8112 7.42999 62.7377 7.35973 63.1193 6.11262C63.4463 5.00605 62.9558 4.02242 61.466 3.61843L58.1956 2.74018L56.2515 9.50263H56.2878ZM59.1403 4.02242L61.1026 4.5318C61.7203 4.68987 62.1564 5.11143 61.9202 5.95454C61.7203 6.63957 61.2661 6.88548 60.5211 6.69226L58.5044 6.14776L59.1585 4.02242H59.1403ZM50.4555 9.20402L55.6154 9.37967V8.36092L51.7273 8.20283L51.8001 6.11262L55.3612 6.20045V5.21681L51.8181 5.12899L51.8545 3.26712L55.67 3.44278V2.40646L50.6372 2.19568L50.4736 9.20402H50.4555ZM43.7693 4.30344L45.8769 3.96972L46.8036 9.60803L48.0208 9.4148L47.0943 3.75894L49.2927 3.39008L49.1837 2.30106L43.4605 3.232L43.7693 4.30344ZM39.8812 12.032L40.9169 11.5401L38.8274 6.90304H38.8456L43.624 10.4511L44.8595 10.0998L42.6611 3.4779L41.4982 3.81164L43.0789 8.74735H43.0243L38.1733 5.09387L36.9742 5.67351L39.8812 12.032ZM37.8462 13.2088L38.9 12.5765L35.1027 6.65714L34.067 7.28946L37.8462 13.1912V13.2088ZM30.724 19.901L34.0126 16.1596L33.2677 15.422L30.7784 18.3378L29.1433 16.9502L31.3781 14.3154L30.6695 13.6304L28.3439 16.2651L26.9267 15.018L29.434 12.2603L28.671 11.4699L25.3642 15.2639L30.7422 19.8834L30.724 19.901ZM22.6751 21.8683L23.7289 19.9362L28.8707 23.0275L29.4521 21.9737L24.3285 18.8822L25.4368 16.9502L24.5466 16.4056L21.694 21.4291L22.6933 21.8683H22.6751ZM27.5989 26.1014L28.0349 24.9773L21.276 22.5357L20.8582 23.6598L27.6171 26.1014H27.5989ZM26.2363 33.7947L26.2727 32.7058L20.9128 32.2315L26.4542 30.8965L26.5633 29.9304L21.4397 26.9796L26.9811 28.0159L27.2537 26.9621L20.1314 25.6096L19.7862 27.208L24.9644 30.1763L19.1322 31.4411L19.0413 33.2678L26.1999 33.8124L26.2363 33.7947ZM20.2768 37.9224C20.0951 36.4646 21.3124 35.7971 22.6569 35.6566C24.0197 35.5161 25.4368 35.9728 25.6366 37.4306C25.8365 38.9061 24.5284 39.5736 23.1838 39.7843C21.8575 39.9951 20.4585 39.3804 20.2768 37.9224ZM19.2593 38.0806C19.4956 40.1005 21.4397 41.2598 23.4382 40.9612C25.4368 40.6625 26.9267 39.3277 26.6359 37.2726C26.3452 35.2351 24.6374 34.3919 22.6389 34.5149C20.622 34.6378 19.0232 36.0255 19.2775 38.0631M22.6933 42.3488C21.367 43.069 20.8219 44.6147 21.4759 46.0198C22.4026 47.9696 24.5102 48.4965 26.3452 47.6886C28.1984 46.8981 29.2704 45.1416 28.3801 43.2797C27.6897 41.8746 26.2363 41.2247 24.601 41.7341L25.0008 42.8054C25.9819 42.4893 27.0175 42.8054 27.4718 43.7715C28.0895 45.1065 26.9993 46.1077 25.7638 46.6522C24.5284 47.1791 23.093 47.0035 22.4753 45.6685C22.0574 44.7552 22.439 44.0174 23.093 43.5256L22.7114 42.3664L22.6933 42.3488Z" fill="#1D1D1B"/>
<path d="M67.9158 61.6702L72.1127 58.8948L71.5132 58.0166L68.3336 60.1421L67.1526 58.4558L70.0233 56.4885L69.4601 55.663L66.5893 57.6302L65.5173 56.0319L68.6606 53.9416L68.0611 53.0809L63.9004 55.8211L67.9158 61.6702Z" fill="#1D1D1B"/>
<path d="M62.5379 64.0237L63.8096 63.5669L63.3918 56.0668L62.2653 56.5586L62.6832 62.4428H62.6469L58.9041 57.7355L57.705 58.0692L62.5379 64.0237Z" fill="#1D1D1B"/>
<path d="M53.3801 65.6573L58.4129 65.0776L58.1948 64.0588L54.4157 64.4805L54.1614 62.3902L57.4682 62.0038L57.2683 61.0553L53.9979 61.4241L53.7798 59.5447L57.4136 59.1758L57.2319 58.1571L52.5443 58.7016L53.3801 65.6573Z" fill="#1D1D1B"/>
<path d="M37.8462 62.6536L42.6246 64.375L42.8972 63.3738L39.3542 62.0916L40.081 60.1419L43.2606 61.3186L43.5149 60.3702L40.408 59.211L41.062 57.4017L44.4598 58.7367L44.7322 57.7706L40.299 56.0668L37.8462 62.6536Z" fill="#1D1D1B"/>
<path d="M37.9372 58.6138L35.4298 57.068L34.9029 57.8057L36.5382 58.8246C35.8477 59.7554 34.7575 59.9838 33.7219 59.2636C32.4682 58.4029 32.7045 56.9627 33.4675 55.8912C34.2306 54.8197 35.4661 54.1698 36.7199 55.0129C37.4647 55.5048 37.8644 56.3304 37.4465 57.1383L38.5003 57.718C39.2453 56.3655 38.573 55.0833 37.283 54.2226C35.5207 53.0456 33.5584 53.6078 32.4318 55.2062C31.3054 56.787 31.3962 58.8772 33.1586 60.054C33.8672 60.5458 34.5395 60.6337 35.5025 60.4053L35.339 61.3714L35.9931 61.7403L37.9372 58.5787V58.6138Z" fill="#1D1D1B"/>
<path d="M44.6233 64.902L45.8042 65.1304L46.749 60.0542H46.7671L49.6198 65.6046L50.946 65.6573L51.2913 58.6842L50.1647 58.6666L49.9468 63.7778H49.9286L47.1124 58.2801L45.8586 58.0166L44.6233 64.902Z" fill="#1D1D1B"/>
<path d="M51.8178 10.9078C64.9359 10.9078 75.6374 21.2535 75.6374 33.9529C75.6374 46.6521 64.9359 56.9803 51.8178 56.9803C38.6998 56.9803 27.9983 46.6346 27.9983 33.9529C27.9983 21.271 38.6998 10.9078 51.8178 10.9078Z" stroke="#1D1D1B" stroke-width="0.45" stroke-miterlimit="2.61"/>
<path d="M46.7855 29.0522V17.3541H56.8512V29.0522H68.9698V38.8007H56.8512V50.5164H46.7855V38.8007H34.6667V29.0522H46.7855Z" fill="#E30613"/>
<path d="M24.3465 93.2691C23.438 88.8428 19.7678 86.6121 15.2801 86.6121C7.57647 86.6121 4.30604 92.7422 4.30604 99.2762C4.30604 106.408 7.5583 112.362 15.3165 112.362C20.9851 112.362 24.2375 108.515 24.6553 103.351H28.9613C28.1438 111.15 23.1109 115.875 14.9531 115.875C4.88746 115.875 0 108.691 0 99.5749C0 90.4588 5.34168 83.0991 15.3165 83.0991C22.0753 83.0991 27.6351 86.6121 28.6343 93.2691H24.3283H24.3465Z" fill="#1D1D1B"/>
<path d="M38.7906 83.8545H34.4844V115.137H38.7906V83.8545Z" fill="#1D1D1B"/>
<path d="M68.7881 93.2691C67.8796 88.8428 64.2094 86.6121 59.7217 86.6121C52.0181 86.6121 48.7659 92.7422 48.7659 99.2762C48.7659 106.408 52.0181 112.362 59.7763 112.362C65.4268 112.362 68.6972 108.515 69.1151 103.351H73.4212C72.6036 111.15 67.589 115.875 59.4129 115.875C49.3654 115.875 44.4598 108.691 44.4598 99.5749C44.4598 90.4588 49.8015 83.0991 59.7763 83.0991C66.5352 83.0991 72.0949 86.6121 73.0942 93.2691H68.7881Z" fill="#1D1D1B"/>
<path d="M91.4991 115.137H86.5934L75.1832 83.8545H79.8527L89.0826 110.975H89.1915L98.5122 83.8545H103L91.4991 115.137Z" fill="#1D1D1B"/>
</g>
</svg>
